<svg xmlns="http://www.w3.org/2000/svg" viewBox="0 0 64 64" fill="none">
  <rect width="64" height="64" rx="14" fill="#0B132B"/>
  <path d="M31.8 56V32.4c-3.7 3.4-8.9 5.3-14.7 4.8 4.3-4.6 6.7-11.5 6.1-18.2-3.7 3-8.2 4-12.8 3 3-4.6 8-8 14-9.1-2.4-3.4-6.2-5.7-10.7-6.2 5-4 11.8-4.6 17.6-1.4 1.7-4.7 5.7-8.3 11-9.3-1.1 5.3-4.7 9.5-9.4 11.3 5.4-.3 10.8 2.4 14 7-5.2 1.1-10.3-.3-13.9-3.5 2 6.4.6 13.5-3.8 18.7V56h-3.4Z" fill="#22C55E"/>
  <path d="M34.6 56V36.7c4 2.3 9.1 2.9 14.1.8-3.8-3.5-6-9.1-5.6-14.9 3.7 3.6 8.8 5.4 14.1 4.7-3-4.6-7.8-8-13.4-9.3 2.5-3.4 6.3-5.7 10.8-6.3-4.9-3.9-11.4-4.6-17-1.7-1.6-4.6-5.4-8.2-10.6-9.4 1 5.5 4.4 9.9 9 12-5.3.1-10.5 3.1-13.4 8.1 5.2 1.3 10.4.3 14.3-2.5-2 6.4-.9 13.2 3 18.3V56h3.7Z" fill="#10B981" opacity=".8"/>
</svg>
