<svg xmlns="http://www.w3.org/2000/svg" viewBox="0 0 64 64" aria-hidden="true">
  <defs>
    <linearGradient id="sausage-body" x1="0%" x2="100%" y1="50%" y2="50%">
      <stop offset="0%" stop-color="#d35400" />
      <stop offset="50%" stop-color="#e67e22" />
      <stop offset="100%" stop-color="#d35400" />
    </linearGradient>
    <filter id="shadow" x="-10%" y="-10%" width="120%" height="120%">
      <feDropShadow dx="0" dy="1.5" stdDeviation="1.2" flood-color="#000" flood-opacity="0.25" />
    </filter>
  </defs>
  <g filter="url(#shadow)">
    <rect x="6" y="18" width="52" height="28" rx="14" ry="14" fill="url(#sausage-body)" stroke="#a84300" stroke-width="2" />
    <path d="M10 20c1.8 2.2 1.8 5.8 0 8" fill="none" stroke="#f8e2c0" stroke-width="2" stroke-linecap="round" />
    <path d="M54 20c-1.8 2.2-1.8 5.8 0 8" fill="none" stroke="#f8e2c0" stroke-width="2" stroke-linecap="round" />
    <path d="M22 30c3 2 7 2 10 0s7-2 10 0" fill="none" stroke="#f8e2c0" stroke-width="2" stroke-linecap="round" />
    <circle cx="18" cy="28" r="2" fill="#c0392b" />
    <circle cx="46" cy="28" r="2" fill="#c0392b" />
    <path d="M16 18c0-2 1.5-4 3-4s3 2 3 4" fill="none" stroke="#c0392b" stroke-width="2" stroke-linecap="round" />
    <path d="M42 18c0-2 1.5-4 3-4s3 2 3 4" fill="none" stroke="#c0392b" stroke-width="2" stroke-linecap="round" />
  </g>
  <path d="M8 46c3 4 9 6 24 6s21-2 24-6" fill="none" stroke="#8b3c00" stroke-width="2" stroke-linecap="round" stroke-opacity="0.6" />
</svg>
